<svg xmlns="http://www.w3.org/2000/svg" width="19" height="19" viewBox="0 0 19 19">
  <g id="グループ_664" data-name="グループ 664" transform="translate(0 -3.844)">
    <g id="楕円形_865_のコピー" data-name="楕円形 865 のコピー" transform="translate(0 3.844)" fill="none">
      <path d="M9.5,0A9.5,9.5,0,1,1,0,9.5,9.5,9.5,0,0,1,9.5,0Z" stroke="none"/>
      <path d="M 9.5 1 C 4.813079833984375 1 1 4.813079833984375 1 9.5 C 1 14.18692016601562 4.813079833984375 18 9.5 18 C 14.18692016601562 18 18 14.18692016601562 18 9.5 C 18 4.813079833984375 14.18692016601562 1 9.5 1 M 9.5 0 C 14.74670028686523 0 19 4.253299713134766 19 9.5 C 19 14.74670028686523 14.74670028686523 19 9.5 19 C 4.253299713134766 19 0 14.74670028686523 0 9.5 C 0 4.253299713134766 4.253299713134766 0 9.5 0 Z" stroke="none" fill="#333"/>
    </g>
    <path id="楕円形_865_のコピー_2" data-name="楕円形 865 のコピー 2" d="M7,0A7,7,0,1,1,0,7,7,7,0,0,1,7,0Z" transform="translate(2.5 6.344)" fill="#333"/>
  </g>
</svg>
